<mxfile host="app.diagrams.net" modified="2022-01-27T14:29:17.638Z" agent="5.0 (Macintosh; Intel Mac OS X 10_15_7) AppleWebKit/537.36 (KHTML, like Gecko) Chrome/97.0.4692.99 Safari/537.36" etag="lsgpgHX5vUegJBZrELQB" version="16.4.3" type="github">
  <diagram name="release" id="SDYwkOnSaY7hF5fSzO1D">
    <mxGraphModel dx="2495" dy="1125" grid="1" gridSize="10" guides="1" tooltips="1" connect="1" arrows="1" fold="1" page="1" pageScale="1" pageWidth="413" pageHeight="291" math="0" shadow="0">
      <root>
        <mxCell id="_iJ6i44_C3ucZC2toOJO-0" />
        <mxCell id="_iJ6i44_C3ucZC2toOJO-1" parent="_iJ6i44_C3ucZC2toOJO-0" />
        <mxCell id="_iJ6i44_C3ucZC2toOJO-3" value="N" style="ellipse;whiteSpace=wrap;html=1;aspect=fixed;fontSize=20;strokeWidth=3;" parent="_iJ6i44_C3ucZC2toOJO-1" vertex="1">
          <mxGeometry x="60" y="843" width="50" height="50" as="geometry" />
        </mxCell>
        <mxCell id="_iJ6i44_C3ucZC2toOJO-5" style="edgeStyle=orthogonalEdgeStyle;curved=1;rounded=0;orthogonalLoop=1;jettySize=auto;html=1;entryX=0;entryY=0.5;entryDx=0;entryDy=0;fontSize=20;endArrow=none;endFill=0;strokeColor=#000000;strokeWidth=3;" parent="_iJ6i44_C3ucZC2toOJO-1" source="_iJ6i44_C3ucZC2toOJO-6" target="_iJ6i44_C3ucZC2toOJO-17" edge="1">
          <mxGeometry relative="1" as="geometry" />
        </mxCell>
        <mxCell id="_iJ6i44_C3ucZC2toOJO-6" value="N" style="ellipse;whiteSpace=wrap;html=1;aspect=fixed;fontSize=20;strokeWidth=3;" parent="_iJ6i44_C3ucZC2toOJO-1" vertex="1">
          <mxGeometry x="410" y="843" width="50" height="50" as="geometry" />
        </mxCell>
        <mxCell id="_iJ6i44_C3ucZC2toOJO-7" style="edgeStyle=orthogonalEdgeStyle;curved=1;rounded=0;orthogonalLoop=1;jettySize=auto;html=1;exitX=1;exitY=0.5;exitDx=0;exitDy=0;entryX=0;entryY=0.5;entryDx=0;entryDy=0;fontSize=38;endArrow=none;endFill=0;strokeWidth=3;" parent="_iJ6i44_C3ucZC2toOJO-1" source="_iJ6i44_C3ucZC2toOJO-3" target="_iJ6i44_C3ucZC2toOJO-6" edge="1">
          <mxGeometry x="140" y="518" as="geometry" />
        </mxCell>
        <mxCell id="_iJ6i44_C3ucZC2toOJO-8" style="edgeStyle=orthogonalEdgeStyle;curved=1;rounded=0;orthogonalLoop=1;jettySize=auto;html=1;entryX=0;entryY=0.5;entryDx=0;entryDy=0;fontSize=24;endArrow=none;endFill=0;strokeWidth=3;strokeColor=#3333FF;" parent="_iJ6i44_C3ucZC2toOJO-1" source="_iJ6i44_C3ucZC2toOJO-12" target="_iJ6i44_C3ucZC2toOJO-6" edge="1">
          <mxGeometry x="140" y="518" as="geometry" />
        </mxCell>
        <mxCell id="_iJ6i44_C3ucZC2toOJO-9" style="edgeStyle=orthogonalEdgeStyle;curved=1;rounded=0;orthogonalLoop=1;jettySize=auto;html=1;entryX=0;entryY=0.5;entryDx=0;entryDy=0;fontSize=20;endArrow=none;endFill=0;strokeColor=#3333FF;strokeWidth=3;" parent="_iJ6i44_C3ucZC2toOJO-1" source="_iJ6i44_C3ucZC2toOJO-12" target="_iJ6i44_C3ucZC2toOJO-19" edge="1">
          <mxGeometry relative="1" as="geometry" />
        </mxCell>
        <mxCell id="_iJ6i44_C3ucZC2toOJO-12" value="F1" style="ellipse;whiteSpace=wrap;html=1;aspect=fixed;fontSize=22;strokeWidth=3;strokeColor=#3333FF;" parent="_iJ6i44_C3ucZC2toOJO-1" vertex="1">
          <mxGeometry x="270" y="958" width="50" height="50" as="geometry" />
        </mxCell>
        <mxCell id="_iJ6i44_C3ucZC2toOJO-14" style="edgeStyle=orthogonalEdgeStyle;curved=1;rounded=0;orthogonalLoop=1;jettySize=auto;html=1;entryX=0;entryY=0.5;entryDx=0;entryDy=0;fontSize=20;endArrow=none;endFill=0;strokeColor=#3333FF;strokeWidth=3;" parent="_iJ6i44_C3ucZC2toOJO-1" source="_iJ6i44_C3ucZC2toOJO-16" target="_iJ6i44_C3ucZC2toOJO-42" edge="1">
          <mxGeometry relative="1" as="geometry" />
        </mxCell>
        <mxCell id="_iJ6i44_C3ucZC2toOJO-16" value="F2" style="ellipse;whiteSpace=wrap;html=1;aspect=fixed;fontSize=22;strokeWidth=3;strokeColor=#3333FF;" parent="_iJ6i44_C3ucZC2toOJO-1" vertex="1">
          <mxGeometry x="520" y="1028" width="50" height="50" as="geometry" />
        </mxCell>
        <mxCell id="_iJ6i44_C3ucZC2toOJO-17" value="N" style="ellipse;whiteSpace=wrap;html=1;aspect=fixed;fontSize=20;strokeWidth=3;" parent="_iJ6i44_C3ucZC2toOJO-1" vertex="1">
          <mxGeometry x="610" y="843" width="50" height="50" as="geometry" />
        </mxCell>
        <mxCell id="_iJ6i44_C3ucZC2toOJO-18" style="edgeStyle=orthogonalEdgeStyle;curved=1;rounded=0;orthogonalLoop=1;jettySize=auto;html=1;fontSize=20;endArrow=none;endFill=0;strokeWidth=3;entryX=0;entryY=0.5;entryDx=0;entryDy=0;strokeColor=#3333FF;" parent="_iJ6i44_C3ucZC2toOJO-1" source="_iJ6i44_C3ucZC2toOJO-16" target="_iJ6i44_C3ucZC2toOJO-17" edge="1">
          <mxGeometry x="140" y="518" as="geometry" />
        </mxCell>
        <mxCell id="_iJ6i44_C3ucZC2toOJO-19" value="F1" style="ellipse;whiteSpace=wrap;html=1;aspect=fixed;fontSize=22;strokeWidth=3;strokeColor=#3333FF;" parent="_iJ6i44_C3ucZC2toOJO-1" vertex="1">
          <mxGeometry x="660" y="958" width="50" height="50" as="geometry" />
        </mxCell>
        <mxCell id="_iJ6i44_C3ucZC2toOJO-20" style="edgeStyle=orthogonalEdgeStyle;curved=1;rounded=0;orthogonalLoop=1;jettySize=auto;html=1;entryX=0;entryY=0.5;entryDx=0;entryDy=0;fontSize=20;endArrow=none;endFill=0;strokeColor=#000000;strokeWidth=3;" parent="_iJ6i44_C3ucZC2toOJO-1" source="_iJ6i44_C3ucZC2toOJO-22" target="_iJ6i44_C3ucZC2toOJO-39" edge="1">
          <mxGeometry relative="1" as="geometry" />
        </mxCell>
        <mxCell id="_iJ6i44_C3ucZC2toOJO-22" value="N" style="ellipse;whiteSpace=wrap;html=1;aspect=fixed;fontSize=20;strokeWidth=3;" parent="_iJ6i44_C3ucZC2toOJO-1" vertex="1">
          <mxGeometry x="750" y="843" width="50" height="50" as="geometry" />
        </mxCell>
        <mxCell id="_iJ6i44_C3ucZC2toOJO-23" style="edgeStyle=orthogonalEdgeStyle;curved=1;rounded=0;orthogonalLoop=1;jettySize=auto;html=1;entryX=0;entryY=0.5;entryDx=0;entryDy=0;fontSize=20;endArrow=none;endFill=0;strokeWidth=3;" parent="_iJ6i44_C3ucZC2toOJO-1" source="_iJ6i44_C3ucZC2toOJO-17" target="_iJ6i44_C3ucZC2toOJO-22" edge="1">
          <mxGeometry x="140" y="518" as="geometry" />
        </mxCell>
        <mxCell id="_iJ6i44_C3ucZC2toOJO-24" style="edgeStyle=orthogonalEdgeStyle;curved=1;rounded=0;orthogonalLoop=1;jettySize=auto;html=1;entryX=0;entryY=0.5;entryDx=0;entryDy=0;fontSize=20;endArrow=none;endFill=0;strokeWidth=3;strokeColor=#3333FF;" parent="_iJ6i44_C3ucZC2toOJO-1" source="_iJ6i44_C3ucZC2toOJO-19" target="_iJ6i44_C3ucZC2toOJO-22" edge="1">
          <mxGeometry x="140" y="518" as="geometry" />
        </mxCell>
        <mxCell id="_iJ6i44_C3ucZC2toOJO-25" value="R2" style="ellipse;whiteSpace=wrap;html=1;aspect=fixed;fontSize=22;strokeWidth=3;strokeColor=#00B300;" parent="_iJ6i44_C3ucZC2toOJO-1" vertex="1">
          <mxGeometry x="960" y="678" width="50" height="50" as="geometry" />
        </mxCell>
        <mxCell id="_iJ6i44_C3ucZC2toOJO-27" style="edgeStyle=orthogonalEdgeStyle;curved=1;rounded=0;orthogonalLoop=1;jettySize=auto;html=1;entryX=0;entryY=0.5;entryDx=0;entryDy=0;fontSize=22;endArrow=none;endFill=0;strokeWidth=3;strokeColor=#00B300;" parent="_iJ6i44_C3ucZC2toOJO-1" source="_iJ6i44_C3ucZC2toOJO-19" target="_iJ6i44_C3ucZC2toOJO-25" edge="1">
          <mxGeometry x="140" y="518" as="geometry" />
        </mxCell>
        <mxCell id="_iJ6i44_C3ucZC2toOJO-28" value="F1" style="ellipse;whiteSpace=wrap;html=1;aspect=fixed;fontSize=22;strokeWidth=3;strokeColor=#00B300;" parent="_iJ6i44_C3ucZC2toOJO-1" vertex="1">
          <mxGeometry x="1050" y="758" width="50" height="50" as="geometry" />
        </mxCell>
        <mxCell id="_iJ6i44_C3ucZC2toOJO-29" style="edgeStyle=orthogonalEdgeStyle;curved=1;rounded=0;orthogonalLoop=1;jettySize=auto;html=1;entryX=0;entryY=0.5;entryDx=0;entryDy=0;fontSize=20;endArrow=none;endFill=0;strokeColor=#00B300;strokeWidth=3;" parent="_iJ6i44_C3ucZC2toOJO-1" source="_iJ6i44_C3ucZC2toOJO-25" target="_iJ6i44_C3ucZC2toOJO-28" edge="1">
          <mxGeometry x="140" y="518" as="geometry" />
        </mxCell>
        <mxCell id="f3lHC2IzpjxRuybxEILP-2" style="edgeStyle=orthogonalEdgeStyle;rounded=0;orthogonalLoop=1;jettySize=auto;html=1;entryX=0;entryY=0.5;entryDx=0;entryDy=0;endArrow=none;endFill=0;curved=1;strokeWidth=3;strokeColor=#FF3333;" edge="1" parent="_iJ6i44_C3ucZC2toOJO-1" source="_iJ6i44_C3ucZC2toOJO-31" target="f3lHC2IzpjxRuybxEILP-1">
          <mxGeometry relative="1" as="geometry" />
        </mxCell>
        <mxCell id="_iJ6i44_C3ucZC2toOJO-31" value="R2" style="ellipse;whiteSpace=wrap;html=1;aspect=fixed;fontSize=22;strokeWidth=3;strokeColor=#00B300;" parent="_iJ6i44_C3ucZC2toOJO-1" vertex="1">
          <mxGeometry x="1150" y="678" width="50" height="50" as="geometry" />
        </mxCell>
        <mxCell id="_iJ6i44_C3ucZC2toOJO-32" style="edgeStyle=orthogonalEdgeStyle;curved=1;rounded=0;orthogonalLoop=1;jettySize=auto;html=1;entryX=0;entryY=0.5;entryDx=0;entryDy=0;fontSize=20;endArrow=none;endFill=0;strokeColor=#00B300;strokeWidth=3;" parent="_iJ6i44_C3ucZC2toOJO-1" source="_iJ6i44_C3ucZC2toOJO-25" target="_iJ6i44_C3ucZC2toOJO-31" edge="1">
          <mxGeometry x="140" y="518" as="geometry" />
        </mxCell>
        <mxCell id="_iJ6i44_C3ucZC2toOJO-33" style="edgeStyle=orthogonalEdgeStyle;curved=1;rounded=0;orthogonalLoop=1;jettySize=auto;html=1;fontSize=20;endArrow=none;endFill=0;strokeColor=#00B300;strokeWidth=3;entryX=0;entryY=0.5;entryDx=0;entryDy=0;" parent="_iJ6i44_C3ucZC2toOJO-1" source="_iJ6i44_C3ucZC2toOJO-28" target="_iJ6i44_C3ucZC2toOJO-31" edge="1">
          <mxGeometry x="140" y="518" as="geometry">
            <mxPoint x="1120" y="698" as="targetPoint" />
          </mxGeometry>
        </mxCell>
        <mxCell id="e6lGBRluWbpVPNSCwL4w-2" style="edgeStyle=orthogonalEdgeStyle;curved=1;rounded=0;orthogonalLoop=1;jettySize=auto;html=1;entryX=0;entryY=0.5;entryDx=0;entryDy=0;endArrow=none;endFill=0;strokeWidth=3;" parent="_iJ6i44_C3ucZC2toOJO-1" source="_iJ6i44_C3ucZC2toOJO-34" target="f3lHC2IzpjxRuybxEILP-5" edge="1">
          <mxGeometry relative="1" as="geometry" />
        </mxCell>
        <mxCell id="_iJ6i44_C3ucZC2toOJO-34" value="M" style="ellipse;whiteSpace=wrap;html=1;aspect=fixed;fontSize=20;strokeWidth=3;" parent="_iJ6i44_C3ucZC2toOJO-1" vertex="1">
          <mxGeometry x="1470" y="518" width="50" height="50" as="geometry" />
        </mxCell>
        <mxCell id="_iJ6i44_C3ucZC2toOJO-35" style="edgeStyle=orthogonalEdgeStyle;curved=1;rounded=0;orthogonalLoop=1;jettySize=auto;html=1;entryX=0;entryY=0.5;entryDx=0;entryDy=0;fontSize=20;endArrow=none;endFill=0;strokeColor=#4D9900;strokeWidth=3;exitX=1;exitY=0.5;exitDx=0;exitDy=0;" parent="_iJ6i44_C3ucZC2toOJO-1" source="f3lHC2IzpjxRuybxEILP-3" target="_iJ6i44_C3ucZC2toOJO-34" edge="1">
          <mxGeometry x="140" y="518" as="geometry" />
        </mxCell>
        <mxCell id="_iJ6i44_C3ucZC2toOJO-36" style="edgeStyle=orthogonalEdgeStyle;curved=1;rounded=0;orthogonalLoop=1;jettySize=auto;html=1;entryX=0;entryY=0.5;entryDx=0;entryDy=0;fontSize=20;endArrow=none;endFill=0;strokeColor=#000000;strokeWidth=3;" parent="_iJ6i44_C3ucZC2toOJO-1" source="_iJ6i44_C3ucZC2toOJO-37" target="_iJ6i44_C3ucZC2toOJO-34" edge="1">
          <mxGeometry relative="1" as="geometry" />
        </mxCell>
        <mxCell id="e6lGBRluWbpVPNSCwL4w-0" style="edgeStyle=orthogonalEdgeStyle;rounded=0;orthogonalLoop=1;jettySize=auto;html=1;entryX=0;entryY=0.5;entryDx=0;entryDy=0;curved=1;strokeWidth=3;endArrow=none;endFill=0;" parent="_iJ6i44_C3ucZC2toOJO-1" source="_iJ6i44_C3ucZC2toOJO-37" target="_iJ6i44_C3ucZC2toOJO-25" edge="1">
          <mxGeometry relative="1" as="geometry">
            <Array as="points">
              <mxPoint x="130" y="543" />
              <mxPoint x="130" y="703" />
            </Array>
          </mxGeometry>
        </mxCell>
        <mxCell id="_iJ6i44_C3ucZC2toOJO-37" value="M" style="ellipse;whiteSpace=wrap;html=1;aspect=fixed;fontSize=20;strokeWidth=3;" parent="_iJ6i44_C3ucZC2toOJO-1" vertex="1">
          <mxGeometry x="50" y="518" width="50" height="50" as="geometry" />
        </mxCell>
        <mxCell id="_iJ6i44_C3ucZC2toOJO-38" style="edgeStyle=orthogonalEdgeStyle;curved=1;rounded=0;orthogonalLoop=1;jettySize=auto;html=1;fontSize=20;endArrow=none;endFill=0;strokeColor=#000000;strokeWidth=3;" parent="_iJ6i44_C3ucZC2toOJO-1" source="_iJ6i44_C3ucZC2toOJO-39" target="_iJ6i44_C3ucZC2toOJO-47" edge="1">
          <mxGeometry relative="1" as="geometry" />
        </mxCell>
        <mxCell id="_iJ6i44_C3ucZC2toOJO-39" value="N" style="ellipse;whiteSpace=wrap;html=1;aspect=fixed;fontSize=20;strokeWidth=3;" parent="_iJ6i44_C3ucZC2toOJO-1" vertex="1">
          <mxGeometry x="960" y="843" width="50" height="50" as="geometry" />
        </mxCell>
        <mxCell id="_iJ6i44_C3ucZC2toOJO-40" style="edgeStyle=orthogonalEdgeStyle;curved=1;rounded=0;orthogonalLoop=1;jettySize=auto;html=1;entryX=0;entryY=0.5;entryDx=0;entryDy=0;fontSize=20;endArrow=none;endFill=0;strokeColor=#3333FF;strokeWidth=3;" parent="_iJ6i44_C3ucZC2toOJO-1" source="_iJ6i44_C3ucZC2toOJO-42" target="_iJ6i44_C3ucZC2toOJO-39" edge="1">
          <mxGeometry relative="1" as="geometry" />
        </mxCell>
        <mxCell id="_iJ6i44_C3ucZC2toOJO-41" style="edgeStyle=orthogonalEdgeStyle;curved=1;rounded=0;orthogonalLoop=1;jettySize=auto;html=1;fontFamily=Helvetica;fontSize=17;fontColor=#FFFFFF;endArrow=none;endFill=0;strokeColor=#3333FF;strokeWidth=3;" parent="_iJ6i44_C3ucZC2toOJO-1" source="_iJ6i44_C3ucZC2toOJO-42" target="_iJ6i44_C3ucZC2toOJO-52" edge="1">
          <mxGeometry relative="1" as="geometry" />
        </mxCell>
        <mxCell id="_iJ6i44_C3ucZC2toOJO-42" value="F2" style="ellipse;whiteSpace=wrap;html=1;aspect=fixed;fontSize=22;strokeWidth=3;strokeColor=#3333FF;" parent="_iJ6i44_C3ucZC2toOJO-1" vertex="1">
          <mxGeometry x="776" y="1028" width="50" height="50" as="geometry" />
        </mxCell>
        <mxCell id="f3lHC2IzpjxRuybxEILP-8" style="edgeStyle=orthogonalEdgeStyle;curved=1;rounded=0;orthogonalLoop=1;jettySize=auto;html=1;entryX=0;entryY=0.5;entryDx=0;entryDy=0;endArrow=none;endFill=0;strokeColor=#000000;strokeWidth=3;" edge="1" parent="_iJ6i44_C3ucZC2toOJO-1" source="_iJ6i44_C3ucZC2toOJO-45" target="f3lHC2IzpjxRuybxEILP-5">
          <mxGeometry relative="1" as="geometry" />
        </mxCell>
        <mxCell id="_iJ6i44_C3ucZC2toOJO-45" value="N" style="ellipse;whiteSpace=wrap;html=1;aspect=fixed;fontSize=20;strokeWidth=3;" parent="_iJ6i44_C3ucZC2toOJO-1" vertex="1">
          <mxGeometry x="1350" y="843" width="50" height="50" as="geometry" />
        </mxCell>
        <mxCell id="_iJ6i44_C3ucZC2toOJO-46" style="edgeStyle=orthogonalEdgeStyle;curved=1;rounded=0;orthogonalLoop=1;jettySize=auto;html=1;fontSize=20;endArrow=none;endFill=0;strokeColor=#000000;strokeWidth=3;entryX=0;entryY=0.5;entryDx=0;entryDy=0;" parent="_iJ6i44_C3ucZC2toOJO-1" source="_iJ6i44_C3ucZC2toOJO-47" target="_iJ6i44_C3ucZC2toOJO-45" edge="1">
          <mxGeometry relative="1" as="geometry">
            <mxPoint x="1460" y="910" as="targetPoint" />
          </mxGeometry>
        </mxCell>
        <mxCell id="_iJ6i44_C3ucZC2toOJO-47" value="N" style="ellipse;whiteSpace=wrap;html=1;aspect=fixed;fontSize=20;strokeWidth=3;" parent="_iJ6i44_C3ucZC2toOJO-1" vertex="1">
          <mxGeometry x="1118" y="843" width="50" height="50" as="geometry" />
        </mxCell>
        <mxCell id="_iJ6i44_C3ucZC2toOJO-48" style="edgeStyle=orthogonalEdgeStyle;curved=1;rounded=0;orthogonalLoop=1;jettySize=auto;html=1;entryX=0;entryY=0.5;entryDx=0;entryDy=0;fontSize=20;endArrow=none;endFill=0;strokeColor=#3333FF;strokeWidth=3;" parent="_iJ6i44_C3ucZC2toOJO-1" source="_iJ6i44_C3ucZC2toOJO-51" target="_iJ6i44_C3ucZC2toOJO-47" edge="1">
          <mxGeometry relative="1" as="geometry" />
        </mxCell>
        <mxCell id="_iJ6i44_C3ucZC2toOJO-49" style="edgeStyle=orthogonalEdgeStyle;curved=1;rounded=0;orthogonalLoop=1;jettySize=auto;html=1;entryX=0;entryY=0.5;entryDx=0;entryDy=0;fontFamily=Helvetica;fontSize=17;fontColor=#FFFFFF;endArrow=none;endFill=0;strokeColor=#3333FF;strokeWidth=3;" parent="_iJ6i44_C3ucZC2toOJO-1" source="_iJ6i44_C3ucZC2toOJO-51" target="_iJ6i44_C3ucZC2toOJO-60" edge="1">
          <mxGeometry relative="1" as="geometry" />
        </mxCell>
        <mxCell id="_iJ6i44_C3ucZC2toOJO-51" value="F3" style="ellipse;whiteSpace=wrap;html=1;aspect=fixed;fontSize=22;strokeWidth=3;strokeColor=#3333FF;" parent="_iJ6i44_C3ucZC2toOJO-1" vertex="1">
          <mxGeometry x="960" y="1110" width="50" height="50" as="geometry" />
        </mxCell>
        <mxCell id="_iJ6i44_C3ucZC2toOJO-52" value="F2" style="ellipse;whiteSpace=wrap;html=1;aspect=fixed;fontSize=22;strokeWidth=3;strokeColor=#3333FF;" parent="_iJ6i44_C3ucZC2toOJO-1" vertex="1">
          <mxGeometry x="1370" y="1028" width="50" height="50" as="geometry" />
        </mxCell>
        <mxCell id="_iJ6i44_C3ucZC2toOJO-59" style="edgeStyle=orthogonalEdgeStyle;curved=1;rounded=0;orthogonalLoop=1;jettySize=auto;html=1;entryX=0;entryY=0.5;entryDx=0;entryDy=0;fontFamily=Helvetica;fontSize=17;fontColor=#FFFFFF;endArrow=none;endFill=0;strokeColor=#3333FF;strokeWidth=3;" parent="_iJ6i44_C3ucZC2toOJO-1" source="_iJ6i44_C3ucZC2toOJO-60" target="_iJ6i44_C3ucZC2toOJO-65" edge="1">
          <mxGeometry relative="1" as="geometry" />
        </mxCell>
        <mxCell id="_iJ6i44_C3ucZC2toOJO-60" value="C3" style="ellipse;whiteSpace=wrap;html=1;aspect=fixed;fontSize=22;strokeWidth=3;strokeColor=#3333FF;" parent="_iJ6i44_C3ucZC2toOJO-1" vertex="1">
          <mxGeometry x="1370" y="1110" width="50" height="50" as="geometry" />
        </mxCell>
        <mxCell id="_iJ6i44_C3ucZC2toOJO-65" value="F3" style="ellipse;whiteSpace=wrap;html=1;aspect=fixed;fontSize=22;strokeWidth=3;strokeColor=#3333FF;" parent="_iJ6i44_C3ucZC2toOJO-1" vertex="1">
          <mxGeometry x="1510" y="1110" width="50" height="50" as="geometry" />
        </mxCell>
        <mxCell id="_iJ6i44_C3ucZC2toOJO-66" value="F3" style="ellipse;whiteSpace=wrap;html=1;aspect=fixed;fontSize=22;strokeWidth=3;strokeColor=#3333FF;" parent="_iJ6i44_C3ucZC2toOJO-1" vertex="1">
          <mxGeometry x="1370" y="1110" width="50" height="50" as="geometry" />
        </mxCell>
        <mxCell id="_iJ6i44_C3ucZC2toOJO-67" value="New &#39;feature&#39; branches are created from &#39;master&#39;. A &#39;feature&#39; branch is merged to &#39;next&#39; when it is ready for deployment to DEV. Once a &#39;feature&#39; branch is ready for UAT, it is merged to a &#39;release&#39; branch and deployed to SIT. This keeps code that is actively under development isolated to the &#39;next&#39; branch and deployable to DEV. Once a &#39;feature&#39; branch has been merged to a &#39;release&#39; branch it can no longer be merged to &#39;next&#39; After a &#39;feature&#39; branch is merged to a &#39;release&#39; branch, any defect fixes are merged to the &#39;release&#39; branch and tested in SIT. When the defects fixes are validated the &#39;release&#39; branch is merged back to the &#39;next&#39;&lt;br&gt;&lt;br&gt;After the &#39;release&#39; branch is deployed to PROD, it is merged to &#39;master&#39; and a new &#39;release&#39; branch is cut from &#39;master&#39;. The new &#39;release&#39; branch is rebased to &#39;next&#39; and deployed to DEV.&lt;br&gt;&lt;br&gt;There is no need to synch up &#39;feature&#39; branches after a release, since these will have to be merged to a &#39;component&#39; branch with has already been synched. Or be merged with the &#39;release&#39; if they are ready for UAT." style="text;html=1;strokeColor=#FFB366;fillColor=#FFFFCC;align=left;verticalAlign=top;whiteSpace=wrap;rounded=0;fontSize=16;perimeterSpacing=2;strokeWidth=2;opacity=60;shadow=0;glass=1;fontFamily=Helvetica;sketch=0;spacingLeft=8;labelPosition=center;verticalLabelPosition=middle;spacingRight=8;" parent="_iJ6i44_C3ucZC2toOJO-1" vertex="1">
          <mxGeometry x="1900" y="550" width="500" height="422" as="geometry" />
        </mxCell>
        <mxCell id="f3lHC2IzpjxRuybxEILP-0" value="&lt;u&gt;PROBLEMS&lt;/u&gt;:&lt;br&gt;&lt;br&gt;How do we keep &#39;feature&#39; branches in synch with &#39;next&#39; ? We could have developers rebase from &#39;next&#39;. But there is a potential that code from other &#39;feature&#39; branches that are not ready for release will get pulled in.&amp;nbsp;&lt;br&gt;&lt;br&gt;After a release, how do we get changes back to the &#39;feature&#39; branches? If developers are in synch with &#39;next&#39; then it&#39;s not a problem, but if they are not, they would need to rebase from &#39;master&#39;. How would we ensure that developers did that?&amp;nbsp;&lt;br&gt;&lt;br&gt;Different contributor teams have different concepts of what a feature is. To some it is big - an entire AEM component, to other teams it is smaller - like adding a toggle. This leads to different lengths of develop time for features. We can&#39;t mandate how other teams run their sprints." style="text;html=1;strokeColor=#FFB366;fillColor=#FFFFCC;align=left;verticalAlign=top;whiteSpace=wrap;rounded=0;fontSize=16;perimeterSpacing=2;strokeWidth=2;opacity=60;shadow=0;glass=1;fontFamily=Helvetica;sketch=0;spacingLeft=8;labelPosition=center;verticalLabelPosition=middle;spacingRight=8;" vertex="1" parent="_iJ6i44_C3ucZC2toOJO-1">
          <mxGeometry x="1910" y="1110" width="500" height="422" as="geometry" />
        </mxCell>
        <mxCell id="f3lHC2IzpjxRuybxEILP-4" style="edgeStyle=orthogonalEdgeStyle;curved=1;rounded=0;orthogonalLoop=1;jettySize=auto;html=1;entryX=0;entryY=0.5;entryDx=0;entryDy=0;endArrow=none;endFill=0;strokeColor=#FF3333;strokeWidth=3;" edge="1" parent="_iJ6i44_C3ucZC2toOJO-1" source="f3lHC2IzpjxRuybxEILP-1" target="f3lHC2IzpjxRuybxEILP-3">
          <mxGeometry relative="1" as="geometry" />
        </mxCell>
        <mxCell id="f3lHC2IzpjxRuybxEILP-7" style="edgeStyle=orthogonalEdgeStyle;curved=1;rounded=0;orthogonalLoop=1;jettySize=auto;html=1;entryX=0;entryY=0.5;entryDx=0;entryDy=0;endArrow=none;endFill=0;strokeColor=#4d9900;strokeWidth=3;" edge="1" parent="_iJ6i44_C3ucZC2toOJO-1" source="f3lHC2IzpjxRuybxEILP-1" target="_iJ6i44_C3ucZC2toOJO-45">
          <mxGeometry relative="1" as="geometry" />
        </mxCell>
        <mxCell id="f3lHC2IzpjxRuybxEILP-1" value="D1" style="ellipse;whiteSpace=wrap;html=1;aspect=fixed;fontSize=22;strokeWidth=3;strokeColor=#FF0000;" vertex="1" parent="_iJ6i44_C3ucZC2toOJO-1">
          <mxGeometry x="1250" y="760" width="50" height="50" as="geometry" />
        </mxCell>
        <mxCell id="f3lHC2IzpjxRuybxEILP-3" value="R2" style="ellipse;whiteSpace=wrap;html=1;aspect=fixed;fontSize=22;strokeWidth=3;strokeColor=#00B300;" vertex="1" parent="_iJ6i44_C3ucZC2toOJO-1">
          <mxGeometry x="1350" y="678" width="50" height="50" as="geometry" />
        </mxCell>
        <mxCell id="f3lHC2IzpjxRuybxEILP-5" value="N" style="ellipse;whiteSpace=wrap;html=1;aspect=fixed;fontSize=20;strokeWidth=3;" vertex="1" parent="_iJ6i44_C3ucZC2toOJO-1">
          <mxGeometry x="1680" y="843" width="50" height="50" as="geometry" />
        </mxCell>
      </root>
    </mxGraphModel>
  </diagram>
</mxfile>
